<svg xmlns="http://www.w3.org/2000/svg" width="160" height="36"><defs><clipPath id="a"><path data-name="長方形 71" fill="none" d="M0 0h160v36H0z"/></clipPath></defs><g data-name="グループ 29" clip-path="url(#a)"><path data-name="パス 34" d="M130.466 4.59a.48.48 0 0 0-.485-.476h-3.8a.481.481 0 0 0-.489.476v14.009h-11.974V4.634a.482.482 0 0 0-.48-.48h-3.807a.485.485 0 0 0-.489.48v30.384a.481.481 0 0 0 .489.476h3.807a.478.478 0 0 0 .48-.476V23.292h11.971v11.726a.48.48 0 0 0 .489.476h3.811a.5.5 0 0 0 .342-.14.482.482 0 0 0 .139-.336Z" fill="#f99900"/><path data-name="パス 35" d="M78.073 24.384v-.374l-.009-.259v-.123c-.022-.314-.052-.6-.091-.9a8.222 8.222 0 0 0-.515-1.845 6.368 6.368 0 0 0-1.147-1.786 6.231 6.231 0 0 0-1.743-1.314 7.357 7.357 0 0 0-1.926-.638 8.548 8.548 0 0 0-.939-.115 8.904 8.904 0 0 0-.458-.017h-.255l-.195.013a7.077 7.077 0 0 0-4.426 1.73v-.727a.48.48 0 0 0-.485-.476h-3.6a.484.484 0 0 0-.489.476v16.988a.484.484 0 0 0 .489.476h3.6a.48.48 0 0 0 .485-.476v-7.67a6.383 6.383 0 0 1 .8-3.427 4.128 4.128 0 0 1 .325-.451 6.118 6.118 0 0 1 1.169-1.128 5.044 5.044 0 0 1 1.522-.769c.13-.034.256-.064.385-.085.022 0 .052-.013.082-.017s.048 0 .065-.009h.013a.543.543 0 0 0 .087-.008.472.472 0 0 1 .108-.009h.017a3.831 3.831 0 0 1 .852.059 2.7 2.7 0 0 1 .679.221 1.631 1.631 0 0 1 .463.344v.009a1.757 1.757 0 0 1 .329.519 3.462 3.462 0 0 1 .2.782c.017.128.035.289.043.442v.009l.013.357v10.82a.479.479 0 0 0 .484.476h3.6a.478.478 0 0 0 .48-.472l.017-4.6Z" fill="#fff"/><path data-name="パス 36" d="M148.873 3.641a8.961 8.961 0 0 0-8.009 4.413c-1.8 2.853-2.717 6.985-2.717 12.278v14.684a.48.48 0 0 0 .484.476h3.868a.479.479 0 0 0 .48-.476v-11.9h11.79v11.9a.479.479 0 0 0 .484.476h3.864a.48.48 0 0 0 .488-.476V20.332c0-7.7-2.812-16.691-10.734-16.691m5.828 14.722h-11.641a18.332 18.332 0 0 1 1.544-6.513c1.065-2.177 2.5-3.282 4.27-3.282 2.557 0 5.369 3.078 5.828 9.8" fill="#f99900"/><path data-name="パス 37" d="M44.298 3.638a8.957 8.957 0 0 0-8.013 4.413c-1.8 2.857-2.717 6.985-2.717 12.282v14.685a.48.48 0 0 0 .485.476h3.863a.484.484 0 0 0 .489-.476V23.111H50.19v11.9a.481.481 0 0 0 .489.476h3.863a.476.476 0 0 0 .48-.476V20.333c0-7.7-2.808-16.7-10.725-16.7m0 4.931c2.552 0 5.36 3.078 5.827 9.8h-11.65a18.2 18.2 0 0 1 1.553-6.513c1.06-2.177 2.5-3.282 4.27-3.282" fill="#fff"/><path data-name="パス 38" d="M99.515 9.875h-3.586a.483.483 0 0 0-.489.476v7.712a8.142 8.142 0 0 0-3.552-.786 7.756 7.756 0 0 0-5.776 2.423 10.207 10.207 0 0 0-2.336 6.938 10.218 10.218 0 0 0 2.336 6.943 8.1 8.1 0 0 0 11.552 0 9.649 9.649 0 0 0 2.336-6.73v-16.5a.482.482 0 0 0-.485-.476m-7.627 12.3c2.254 0 3.552 1.7 3.552 4.672s-1.294 4.672-3.552 4.672-3.552-1.7-3.552-4.672 1.293-4.672 3.552-4.672" fill="#fff"/><path data-name="パス 39" d="M0 35.495h21.126v-20.76H0Zm16.5-4.541H4.621V19.276H16.5Z" fill="#fff"/><path data-name="パス 40" d="M13.955.664a.59.59 0 0 0-.415-.178H7.582a.561.561 0 0 0-.407.178.547.547 0 0 0-.16.413l1.19 24.063a.564.564 0 0 0 .571.536h3.417a.57.57 0 0 0 .571-.531l1.342-24.059a.567.567 0 0 0-.151-.417" fill="#f99900"/></g></svg>